<?xml version="1.0" encoding="UTF-8"?>
<!-- Generator: Adobe Illustrator 21.0.0, SVG Export Plug-In . SVG Version: 6.00 Build 0)  -->
<svg id="Слой_1" width="203" height="203" version="1.1" viewBox="0 0 203 203" xml:space="preserve" xmlns="http://www.w3.org/2000/svg">

<g id="g1" transform="translate(22.181 -3.5345)"><rect id="rect32" x="-22.181" y="3.5345" width="203" height="203" rx="20" ry="20" color="#000000" fill="#fff" style="paint-order:markers stroke fill"/><g id="g7" transform="matrix(.75547 0 0 .75627 -181.87 184.47)" stroke="#000"><g id="g2485" transform="matrix(4.161,0,0,4.1583,-128.69,-888.25)" stroke-width=".47708"><path id="path2481" d="m110.95 158.98v1.5431c-1.7787 0.77474-3.1982 2.1942-3.9729 3.9729h-1.543v6.1236h1.543c0.64629 1.4843 1.7453 2.7264 3.1399 3.5486 0.0389 1.0129 3e-3 2.7109-0.59686 3.4835-1.3307 1.7127-8.1273 0.31287-6.0523 2.388l10.544 10.545 10.545-10.545c2.075-2.075-4.7217-0.67525-6.0523-2.388-0.60025-0.77257-0.63613-2.4706-0.59738-3.4835 1.3946-0.82224 2.4936-2.0643 3.1399-3.5486h1.5431v-6.1236h-1.5379c-0.77491-1.7816-2.1965-3.2031-3.978-3.9781v-1.5379z" fill="#ffcd1c" fill-rule="evenodd"/><circle id="circle2483" cx="114.01" cy="167.56" r="4.1131" color="#000000" fill="#fff" stop-color="#000000"/></g><rect id="rect4" transform="rotate(45)" x="111.44" y="-297.49" width="64.827" height="64.827" color="#000000" fill="#1488ca" stroke-linecap="round" stroke-width="1.9845" style="paint-order:fill markers stroke"/><rect id="rect5" transform="rotate(45)" x="191.44" y="-297.49" width="64.827" height="64.827" color="#000000" fill="#95c11f" stroke-linecap="round" stroke-width="1.9845" style="paint-order:fill markers stroke"/><rect id="rect7" transform="rotate(45)" x="191.44" y="-377.49" width="64.827" height="64.827" color="#000000" fill="#6561a9" stroke-linecap="round" stroke-width="1.9845" style="paint-order:fill markers stroke"/></g></g></svg>
