<?xml version="1.0" encoding="UTF-8"?>
<!-- Generator: Adobe Illustrator 21.0.0, SVG Export Plug-In . SVG Version: 6.00 Build 0)  -->
<svg id="Слой_1" width="602.3" height="331.39" version="1.1" viewBox="0 0 602.3 331.39" xml:space="preserve" xmlns="http://www.w3.org/2000/svg"><defs id="defs9"><marker id="Triangle" overflow="visible" markerHeight="1" markerWidth="1" orient="auto-start-reverse" preserveAspectRatio="xMidYMid" viewBox="0 0 1 1"><path id="path135" transform="scale(.5)" d="m5.77 0-8.65 5v-10z" fill="context-stroke" fill-rule="evenodd" stroke="context-stroke" stroke-width="1pt"/></marker></defs>

<rect id="rect32" width="602.3" height="331.39" rx="20" ry="20" color="#000000" fill="#fff" style="paint-order:markers stroke fill"/><g id="g31" transform="translate(174.36 86.638)"><g id="g34" transform="matrix(1.4335 0 0 1.4335 90.925 76.517)" fill="#fff" font-family="FreeSans" font-size="52.913px" letter-spacing="0px" stroke="#000" stroke-linecap="round" stroke-width="1.3952" text-anchor="middle" word-spacing="0px"><text id="text33" x="-28.861904" y="-60.33387" color="#000000" text-align="center" style="line-height:20px;paint-order:markers stroke fill;text-decoration-color:#000000;text-decoration-line:none" xml:space="preserve"><tspan id="tspan33" x="-28.861908" y="-60.33387" fill="#1488ca" font-family="'Inria Sans'" stroke="none" stroke-width="1.3952">Mol</tspan></text><text id="text34" x="68.90239" y="-60.33387" color="#000000" text-align="center" style="line-height:20px;paint-order:markers stroke fill;text-decoration-color:#000000;text-decoration-line:none" xml:space="preserve"><tspan id="tspan34" x="68.90239" y="-60.33387" fill="#6561a9" font-family="'Inria Sans'" stroke="none" stroke-width="1.3952">Pred</tspan></text></g><g id="g30" transform="translate(-117.83 -219.42)"><g id="g26" transform="matrix(.90012 0 0 .90013 64.46 406.92)"><path id="path18" d="m27.193-187.51-0.80323 46.712" fill="none" stroke="#6561a9" stroke-width="4.0993"/><path id="path17" d="m15.193-187.51-0.80323 46.712" fill="none" stroke="#6561a9" stroke-width="4.0993"/><path id="path20" d="m-63.293-34.205 40.856-22.661" fill="none" stroke="#6561a9" stroke-width="4.0993"/><path id="path21" d="m-69.293-44.597 40.856-22.661" fill="none" stroke="#6561a9" stroke-width="4.0993"/><path id="path10" transform="matrix(1.0723,0,0,1.0718,-155.48,-274.04)" d="m210.15 200.27-45.754 26.416-45.754-26.416v-52.832l45.754-26.416 45.754 26.416z" color="#000000" fill="none" stroke="#1488ca" stroke-linecap="round" stroke-width="3.8237" style="paint-order:markers stroke fill"/><path id="path25" d="m20.792-31.09-0.80323 62.18" fill="none" stroke="#000" stroke-width="4.0993"/><path id="path26" d="m-81.716-147.79 53.447 31.785" fill="none" stroke="#000" stroke-width="4.0993"/><circle id="circle12" cx="-28.269" cy="-116" r="20.232" color="#000000" fill="#fff" stroke-width="1.0846" style="paint-order:markers stroke fill"/><text id="text12" x="-28.268898" y="-101.4645" color="#000000" fill="#89ccca" font-family="FreeSans" font-size="39.879px" letter-spacing="0px" stroke-linecap="round" stroke-opacity=".82687" stroke-width="4.0993" text-align="center" text-anchor="middle" word-spacing="0px" style="line-height:15.0733px;paint-order:markers stroke fill;text-decoration-color:#000000;text-decoration-line:none" xml:space="preserve"><tspan id="tspan12" x="-28.268898" y="-101.4645" fill="#89ccca" stroke-width="4.0993">N</tspan></text><circle id="circle13" cx="20.792" cy="-31.059" r="20.232" color="#000000" fill="#fff" stroke-width="1.0846" style="paint-order:markers stroke fill"/><text id="text13" x="20.791712" y="-16.523005" color="#000000" fill="#89ccca" font-family="FreeSans" font-size="39.879px" letter-spacing="0px" stroke-linecap="round" stroke-opacity=".82687" stroke-width="4.0993" text-align="center" text-anchor="middle" word-spacing="0px" style="line-height:15.0733px;paint-order:markers stroke fill;text-decoration-color:#000000;text-decoration-line:none" xml:space="preserve"><tspan id="tspan13" x="20.791712" y="-16.523005" fill="#89ccca" stroke-width="4.0993">N</tspan></text><path id="path11" transform="matrix(0 .83623 -.83589 0 120.14 -269.61)" d="m217.55-49.176 54.386 39.514-20.774 63.935-67.225-2e-6 -20.774-63.935z" color="#000000" fill="none" stroke="#95c11f" stroke-linecap="round" stroke-width="4.903" style="paint-order:markers stroke fill"/><path id="path16" d="m84.295-112.69-0.80323 46.712" fill="none" stroke="#95c11f" stroke-width="4.0993"/><path id="path23" d="m152.06-89.473-28.107 37.319" fill="none" stroke="#95c11f" stroke-width="4.0993"/><path id="path24" d="m146.52-185.27-18.157 52.186" fill="none" stroke="#000" stroke-width="4.0993"/><circle id="path12" cx="128.22" cy="-42.207" r="20.232" color="#000000" fill="#fff" stroke-width="1.0846" style="paint-order:markers stroke fill"/><text id="text11" x="128.21559" y="-27.671217" color="#000000" fill="#89ccca" font-family="FreeSans" font-size="39.879px" letter-spacing="0px" stroke-linecap="round" stroke-opacity=".82687" stroke-width="4.0993" text-align="center" text-anchor="middle" word-spacing="0px" style="line-height:15.0733px;paint-order:markers stroke fill;text-decoration-color:#000000;text-decoration-line:none" xml:space="preserve"><tspan id="tspan11" x="128.21559" y="-27.671217" fill="#89ccca" stroke-width="4.0993">N</tspan></text><circle id="circle14" cx="128.22" cy="-133.17" r="20.232" color="#000000" fill="#fff" stroke-width="1.0846" style="paint-order:markers stroke fill"/><text id="text14" x="128.21562" y="-118.63012" color="#000000" fill="#89ccca" font-family="FreeSans" font-size="39.879px" letter-spacing="0px" stroke-linecap="round" stroke-opacity=".82687" stroke-width="4.0993" text-align="center" text-anchor="middle" word-spacing="0px" style="line-height:15.0733px;paint-order:markers stroke fill;text-decoration-color:#000000;text-decoration-line:none" xml:space="preserve"><tspan id="tspan14" x="128.21562" y="-118.63012" fill="#89ccca" stroke-width="4.0993">N</tspan></text><circle id="circle18" cx="20.792" cy="-198.31" r="20.232" color="#000000" fill="#fff" stroke-width="1.0846" style="paint-order:markers stroke fill"/><text id="text18" x="20.791723" y="-183.99767" color="#000000" fill="#6561a9" font-family="FreeSans" font-size="39.879px" letter-spacing="0px" stroke-linecap="round" stroke-opacity=".82687" stroke-width="4.0993" text-align="center" text-anchor="middle" word-spacing="0px" style="line-height:15.0733px;paint-order:markers stroke fill;text-decoration-color:#000000;text-decoration-line:none" xml:space="preserve"><tspan id="tspan18" x="20.791723" y="-183.99767" fill="#6561a9" stroke-width="4.0993">O</tspan></text><circle id="circle21" transform="rotate(240)" cx="66.867" cy="-48.515" r="20.232" color="#000000" fill="#fff" stroke-width="1.0846" style="paint-order:markers stroke fill"/><text id="text21" x="-75.448685" y="-19.334925" color="#000000" fill="#6561a9" font-family="FreeSans" font-size="39.879px" letter-spacing="0px" stroke-linecap="round" stroke-opacity=".82687" stroke-width="4.0993" text-align="center" text-anchor="middle" word-spacing="0px" style="line-height:15.0733px;paint-order:markers stroke fill;text-decoration-color:#000000;text-decoration-line:none" xml:space="preserve"><tspan id="tspan21" x="-75.448685" y="-19.334925" fill="#6561a9" stroke-width="4.0993">O</tspan></text></g><g id="g7" transform="matrix(.75547 0 0 .75627 159.96 390.58)" stroke="#000"><g id="g2485" transform="matrix(4.161 0 0 4.1583 -128.69 -888.25)" stroke-width=".47708"><path id="path2481" d="m110.95 158.98v1.5431c-1.7787 0.77474-3.1982 2.1942-3.9729 3.9729h-1.543v6.1236h1.543c0.64629 1.4843 1.7453 2.7264 3.1399 3.5486 0.0389 1.0129 3e-3 2.7109-0.59686 3.4835-1.3307 1.7127-8.1273 0.31287-6.0523 2.388l10.544 10.545 10.545-10.545c2.075-2.075-4.7217-0.67525-6.0523-2.388-0.60025-0.77257-0.63613-2.4706-0.59738-3.4835 1.3946-0.82224 2.4936-2.0643 3.1399-3.5486h1.5431v-6.1236h-1.5379c-0.77491-1.7816-2.1965-3.2031-3.978-3.9781v-1.5379z" fill="#ffcd1c" fill-rule="evenodd"/><circle id="circle2483" cx="114.01" cy="167.56" r="4.1131" color="#000000" fill="#fff" stop-color="#000000"/></g><rect id="rect4" transform="rotate(45)" x="111.44" y="-297.49" width="64.827" height="64.827" color="#000000" fill="#1488ca" stroke-linecap="round" stroke-width="1.9845" style="paint-order:fill markers stroke"/><rect id="rect5" transform="rotate(45)" x="191.44" y="-297.49" width="64.827" height="64.827" color="#000000" fill="#95c11f" stroke-linecap="round" stroke-width="1.9845" style="paint-order:fill markers stroke"/><rect id="rect7" transform="rotate(45)" x="191.44" y="-377.49" width="64.827" height="64.827" color="#000000" fill="#6561a9" stroke-linecap="round" stroke-width="1.9845" style="paint-order:fill markers stroke"/></g><path id="path19" d="m223.78 285.75c37.092-60.118 88.423-32.432 123.24 7.4659" fill="none" marker-end="url(#Triangle)" stop-color="#000000" stroke="#1488ca" stroke-width="3" style="font-variation-settings:normal"/><g id="g27" transform="matrix(.73601 0 0 .736 61.915 55.249)" stroke-linecap="round"><ellipse id="circle19-7" cx="287.57" cy="263.5" rx="26.804" ry="26.782" color="#000000" fill="#fff" stroke="#1488ca" stroke-width="4.0761" style="paint-order:fill markers stroke"/><text id="text19-0" transform="scale(1.0004 .99958)" x="288.09134" y="282.12827" color="#000000" fill="#1488ca" font-family="'Inria Sans'" font-size="53.67px" letter-spacing="0px" stroke-width="2.038" text-align="center" text-anchor="middle" word-spacing="0px" style="line-height:20.2862px;paint-order:fill markers stroke;text-decoration-color:#000000;text-decoration-line:none" xml:space="preserve"><tspan id="tspan19-9" x="288.09134" y="282.12827" fill="#1488ca" stroke-width="2.038">?</tspan></text></g><path id="path22" d="m223.78 325.75c167.42 0 81.163 125.6 164.01 71.728" fill="none" marker-end="url(#Triangle)" stop-color="#000000" stroke="#95c11f" stroke-width="3" style="font-variation-settings:normal"/><g id="g29" transform="matrix(.73601 0 0 .736 64.576 66.341)" stroke-linecap="round"><ellipse id="ellipse22" cx="283.95" cy="352.46" rx="26.804" ry="26.782" color="#000000" fill="#fff" stroke="#95c11f" stroke-width="4.0761" style="paint-order:fill markers stroke"/><text id="text22" transform="scale(1.0004 .99958)" x="284.47766" y="371.12161" color="#000000" fill="#95c11f" font-family="'Inria Sans'" font-size="53.67px" letter-spacing="0px" stroke-width="2.038" text-align="center" text-anchor="middle" word-spacing="0px" style="line-height:20.2862px;paint-order:fill markers stroke;text-decoration-color:#000000;text-decoration-line:none" xml:space="preserve"><tspan id="tspan22" x="284.47766" y="371.12161" fill="#95c11f" stroke-width="2.038">?</tspan></text></g><path id="path27" d="m223.78 365.75c150.56 134.52 339.44 64.796 271.3-7.1505" fill="none" marker-end="url(#Triangle)" stop-color="#000000" stroke="#6561a9" stroke-width="3" style="font-variation-settings:normal"/><g id="g28" transform="matrix(.73601 0 0 .736 63.158 69.568)" stroke-linecap="round"><ellipse id="ellipse27" cx="285.88" cy="452.1" rx="26.804" ry="26.782" color="#000000" fill="#fff" stroke="#6561a9" stroke-width="4.0761" style="paint-order:fill markers stroke"/><text id="text27" transform="scale(1.0004 .99958)" x="286.4028" y="470.80597" color="#000000" fill="#6561a9" font-family="'Inria Sans'" font-size="53.67px" letter-spacing="0px" stroke-width="2.038" text-align="center" text-anchor="middle" word-spacing="0px" style="line-height:20.2862px;paint-order:fill markers stroke;text-decoration-color:#000000;text-decoration-line:none" xml:space="preserve"><tspan id="tspan27" x="286.4028" y="470.80597" fill="#6561a9" stroke-width="2.038">?</tspan></text></g></g></g></svg>
